<svg id="Layer_1" data-name="Layer 1" xmlns="http://www.w3.org/2000/svg" viewBox="0 0 33.16 29.45"><defs><style>.cls-1{fill:#58595b;}</style></defs><path class="cls-1" d="M269.1,166.33v0H245.62v4H250v21.4h-4.41v4H269.1v0c5.41-.51,9.68-6.89,9.68-14.69S274.51,166.84,269.1,166.33Zm1.78,3.74a5.84,5.84,0,0,1,.91,3.25,6.85,6.85,0,0,1-2.78,5l-7.35-.07a3.59,3.59,0,0,0-.47,0,2.64,2.64,0,0,0-1.15.1l-3.36,1.1-3.15,1V170.07Zm-3,21.64H253.53v-5l6.52-2.81.14-.08,5.94.07.27,0h1.16a2.37,2.37,0,0,0,1.14-.27h0a1.91,1.91,0,0,0,.66-.6,14.68,14.68,0,0,0,3.77-5.65,11.93,11.93,0,0,1-5.27,14.36Z" transform="translate(-245.62 -166.29)"/></svg>