<svg id="Layer_1" data-name="Layer 1" xmlns="http://www.w3.org/2000/svg" viewBox="0 0 36.45 34.45"><defs><style>.cls-1{fill:#959b90;}</style></defs><path class="cls-1" d="M144.17,143.38v0l-22.73,5.89,1,3.9L126.7,152l5.37,20.72-4.27,1.1,1,3.9,22.73-5.89v0c5.11-1.85,7.65-9.1,5.69-16.65S149.53,142.52,144.17,143.38Zm2.66,3.18a5.76,5.76,0,0,1,1.69,2.92,6.88,6.88,0,0,1-1.44,5.49l-7.14,1.77a3.26,3.26,0,0,0-.44.15,2.7,2.7,0,0,0-1.09.39l-3,1.9-2.8,1.76-2.59-10Zm2.51,21.71-13.88,3.59L134.2,167l5.61-4.36.11-.11,5.77-1.41.27-.05.61-.17.51-.13a2.23,2.23,0,0,0,1-.55h0a1.88,1.88,0,0,0,.49-.74,14.76,14.76,0,0,0,2.24-6.42,11.94,11.94,0,0,1,1.68,3.73A11.8,11.8,0,0,1,149.34,168.27Z" transform="translate(-121.43 -143.29)"/></svg>